<?xml version="1.0" standalone="no"?>
<!DOCTYPE svg PUBLIC "-//W3C//DTD SVG 1.1//EN" "http://www.w3.org/Graphics/SVG/1.1/DTD/svg11.dtd" >
<svg xmlns="http://www.w3.org/2000/svg">
<metadata></metadata>
<defs>
<font id="sansserifexbflfmedium" horiz-adv-x="784" >
<font-face units-per-em="2048" ascent="1638" descent="-410" />
<missing-glyph horiz-adv-x="755" />
<glyph unicode="&#xfb01;" horiz-adv-x="1515" d="M61 713v291h115v143q0 58 12.5 106t52.5 99t106 86t181.5 57.5t270.5 22.5q110 0 199.5 -11t151 -29t107.5 -44.5t72.5 -54.5t43 -63.5t21.5 -65.5t5 -66v-101h-471v64q0 110 -140 110q-73 0 -108 -35.5t-35 -91.5v-126h205v-291h-205v-713h-469v713h-115zM928 0v1004 h471v-1004h-471z" />
<glyph unicode="&#xfb02;" horiz-adv-x="1478" d="M61 713v291h115v96q0 418 608 418q145 0 252 -19.5t176 -54.5t111 -90t59 -119.5t17 -149.5v-1085h-471v1112q0 78 -31.5 111.5t-108.5 33.5q-71 0 -107 -34.5t-36 -89.5v-129h205v-291h-205v-713h-469v713h-115z" />
<glyph horiz-adv-x="0" />
<glyph horiz-adv-x="682" />
<glyph unicode=" "  horiz-adv-x="755" />
<glyph unicode="&#x09;" horiz-adv-x="755" />
<glyph unicode="&#xa0;" horiz-adv-x="755" />
<glyph unicode="!" horiz-adv-x="751" d="M147 498v964h471v-964h-471zM166 209q0 92 65.5 157.5t157.5 65.5t157.5 -65.5t65.5 -157.5t-65.5 -157.5t-157.5 -65.5t-157.5 65.5t-65.5 157.5z" />
<glyph unicode="&#x22;" horiz-adv-x="774" d="M117 1520h188l-29 -430h-129zM479 1520h189l-31 -430h-129z" />
<glyph unicode="#" horiz-adv-x="1576" d="M82 549l53 225h260l58 234h-285l65 221h275l61 244h228l-62 -244h266l62 244h227l-61 -244h272l-67 -221h-260l-58 -234h277l-56 -225h-278l-62 -246h-227l61 246h-266l-61 -246h-228l62 246h-256zM621 774h268l57 234h-266z" />
<glyph unicode="$" horiz-adv-x="1269" d="M63 180l99 303q232 -145 397 -145q74 0 116 22.5t42 63.5q0 44 -41.5 70t-143.5 43q-225 36 -331.5 149.5t-106.5 302.5q0 83 29.5 163t83.5 145.5t136.5 110.5t182.5 58v78h246v-82q66 0 135.5 -15t127.5 -39.5t88.5 -40t56.5 -30.5l-99 -315q-3 2 -32 17.5t-35.5 18.5 t-34.5 16t-42 17t-44 12.5t-54.5 11.5t-59.5 6t-72 3q-117 0 -117 -80q0 -44 41.5 -70.5t138.5 -41.5q116 -17 206.5 -61.5t145.5 -106.5t83 -134t28 -151q0 -191 -121.5 -320.5t-339.5 -158.5v-125h-246v121q-241 16 -463 184z" />
<glyph unicode="%" horiz-adv-x="1368" d="M131 1176q0 122 70 210.5t196 88.5t196.5 -88.5t70.5 -210.5q0 -123 -70.5 -212.5t-196.5 -89.5t-196 89.5t-70 212.5zM201 0l794 1462h187l-793 -1462h-188zM317 1174q0 -55 21 -94.5t59 -39.5t59 39.5t21 94.5t-21 94t-59 39t-59 -39t-21 -94zM733 291q0 122 71 210.5 t197 88.5t197.5 -89t71.5 -212q0 -121 -71.5 -210t-197.5 -89t-197 89t-71 212zM922 289q0 -55 20.5 -94t58.5 -39t59 39t21 94t-21 94t-59 39t-58.5 -39t-20.5 -94z" />
<glyph unicode="&#x26;" horiz-adv-x="1671" d="M45 385q0 41 6 78t19.5 69.5t26.5 58t37.5 52t40.5 43.5t48 40t47.5 34t51 34t47.5 31l-52 72q-1 1 -12.5 16.5t-15.5 21.5t-14 22.5t-14.5 30.5t-11 33.5t-9 42.5t-2.5 48q0 66 32.5 130.5t91.5 118.5t155 87t212 33q199 0 328 -97t129 -251q0 -42 -11 -81t-34.5 -74 t-42.5 -59.5t-54.5 -53.5t-49.5 -40t-46 -33q-10 -7 -14 -10l139 -157q23 14 46 30t44.5 33.5t35 28.5t34 28t24.5 21l281 -281q-55 -57 -197 -163l281 -322h-524l-103 115q-59 -35 -110 -58t-154 -44t-227 -21q-125 0 -230 49.5t-167 140t-62 203.5zM526 479 q0 -41 33 -68.5t86 -27.5q55 0 88 29l-139 161q-20 -12 -31.5 -21.5t-24 -29t-12.5 -43.5zM637 1157q0 -39 33 -78l51 -57q3 2 18 14t22 18t20 19t19 23t11.5 24.5t5.5 28.5q0 33 -24 53.5t-68 20.5q-39 0 -63.5 -20t-24.5 -46z" />
<glyph unicode="'" horiz-adv-x="407" d="M119 1520h188l-28 -430h-129z" />
<glyph unicode="(" horiz-adv-x="657" d="M61 705q0 250 99.5 476t288.5 384l167 -162q-231 -324 -231 -703t231 -708l-182 -180q-182 180 -277.5 413t-95.5 480z" />
<glyph unicode=")" horiz-adv-x="647" d="M39 -8q231 329 231 708t-231 703l168 162q189 -158 288 -383.5t99 -476.5q0 -247 -95.5 -480t-277.5 -413z" />
<glyph unicode="*" horiz-adv-x="751" d="M92 1081q0 20 18 39t43 32t60.5 25.5t60.5 19t53 13.5t29 7q-2 1 -29 7t-53 12.5t-60.5 18.5t-60 25.5t-43.5 32.5t-18 39q0 25 15 40t38 15q19 0 43.5 -11.5t46 -27t46.5 -37.5t40 -37.5t32 -33.5t18 -19q-45 150 -45 215q0 88 59 88t59 -88q0 -36 -10 -83.5 t-22.5 -88.5t-12.5 -43q2 2 18 19t32 33.5t40 38.5t45.5 38t46 27.5t42.5 11.5q25 0 40 -15t15 -42q0 -20 -18 -38.5t-43.5 -32t-60.5 -26t-60 -19t-52.5 -13t-29.5 -6.5q2 0 29 -6.5t52.5 -13t60.5 -19t60.5 -26t43.5 -32.5t18 -39q0 -55 -53 -55q-19 0 -43.5 11.5t-46 27 t-46.5 37.5t-40 37.5t-32 33.5t-18 19q45 -150 45 -215q0 -88 -59 -88t-59 88q0 36 10 83.5t22.5 88.5t12.5 43q-2 -2 -18 -19t-32 -33.5t-40 -38.5t-45.5 -38t-46 -27.5t-42.5 -11.5q-25 0 -40 15t-15 42z" />
<glyph unicode="+" horiz-adv-x="1202" d="M139 375v313h312v313h313v-313h317v-313h-315v-314h-313v314h-314z" />
<glyph unicode="," horiz-adv-x="731" d="M10 -160l215 563h416l-383 -563h-248z" />
<glyph unicode="-" horiz-adv-x="1222" d="M147 375v313h936v-313h-936z" />
<glyph unicode="." horiz-adv-x="669" d="M115 201q0 92 64.5 156.5t156.5 64.5t156.5 -64.5t64.5 -156.5t-64.5 -156.5t-156.5 -64.5t-156.5 64.5t-64.5 156.5z" />
<glyph unicode="/" horiz-adv-x="720" d="M27 -94l471 1620h188l-471 -1620h-188z" />
<glyph unicode="0" horiz-adv-x="1441" d="M49 729q0 114 26.5 222t81.5 204t132.5 168t188 114t239.5 42t239 -42t188 -113.5t132.5 -167t81 -203.5t26.5 -222t-26.5 -222t-81.5 -204t-132.5 -168.5t-187.5 -114.5t-239 -42t-239.5 42t-188 114t-132.5 167.5t-81.5 203.5t-26.5 222zM516 729q0 -87 21.5 -161 t68 -123.5t111.5 -49.5t111.5 49.5t68 123.5t21.5 161t-21.5 161t-68 123.5t-111.5 49.5t-111.5 -49.5t-68 -123.5t-21.5 -161z" />
<glyph unicode="1" horiz-adv-x="866" d="M133 1098v364h617v-1462h-469v1098h-148z" />
<glyph unicode="2" horiz-adv-x="1323" d="M53 0v240l219 168q32 24 84 68.5t125 117.5t134.5 145.5t105 152.5t43.5 140q0 135 -125 135q-121 0 -125 -196h-418q3 62 20.5 125t60 132t105 121.5t165 86.5t229.5 34q291 0 437.5 -113t146.5 -313q0 -355 -515 -677h515v-367h-1207z" />
<glyph unicode="3" horiz-adv-x="1261" d="M80 451h418q10 -119 123 -119q61 0 90.5 34t29.5 107q0 46 -12 75t-39 42.5t-56 17.5t-77 4v297q95 0 139.5 25t44.5 88q0 62 -26.5 90.5t-93.5 28.5q-113 0 -113 -123h-418q1 67 16 128t52.5 124t96 108t154 74t218.5 29q544 0 544 -400q0 -67 -19.5 -119t-56 -85.5 t-73.5 -53.5t-86 -37q48 -13 91.5 -36.5t88 -62t71.5 -101t27 -140.5q0 -219 -147.5 -340.5t-425.5 -121.5q-121 0 -218 29.5t-157.5 75.5t-102.5 109.5t-60 125t-23 127.5z" />
<glyph unicode="4" horiz-adv-x="1445" d="M84 258v334l481 870h656v-839h153v-365h-153v-258h-461v258h-676zM557 623h203v411z" />
<glyph unicode="5" horiz-adv-x="1253" d="M68 72l41 340q3 -1 24.5 -8.5t27 -9t27 -8.5t31 -9.5t31.5 -8t36 -8t36.5 -6t41.5 -5.5t43 -3.5t48 -1.5q280 0 280 197q0 113 -76.5 161t-214.5 48q-122 0 -256 -31l91 743h827v-344h-471l-14 -129q49 6 98 6q73 0 139.5 -15t130 -51t109.5 -90t74 -138t28 -189 q0 -133 -52.5 -237t-143 -167.5t-206 -95.5t-249.5 -32q-240 0 -481 92z" />
<glyph unicode="6" horiz-adv-x="1337" d="M74 504q0 220 141 440l338 518h471l-379 -534q24 6 98 6q69 0 135 -12.5t134 -45.5t118.5 -83t82.5 -132t32 -186q0 -237 -155.5 -374.5t-446.5 -137.5q-132 0 -240.5 42t-179.5 115.5t-110 172t-39 211.5zM502 467q0 -60 40 -105t111 -45t111.5 45t40.5 105 q0 61 -40.5 106t-111.5 45t-111 -45t-40 -106z" />
<glyph unicode="7" horiz-adv-x="1327" d="M78 0l545 1098h-541v364h1192l-725 -1462h-471z" />
<glyph unicode="8" horiz-adv-x="1232" d="M37 397q0 68 16 124.5t39 92.5t59 66.5t63 46t65 33.5q-35 20 -57.5 35t-51 43t-45.5 59.5t-29 80.5t-12 109q0 159 148.5 272.5t379.5 113.5t382 -113.5t151 -272.5q0 -60 -13 -109t-30.5 -80.5t-47.5 -60t-52 -43.5t-56 -34q26 -11 33.5 -15t34.5 -17.5t38.5 -22.5 t35 -28t35 -36t28.5 -44t25 -55t14 -65.5t6 -79.5q0 -179 -162.5 -301.5t-419.5 -122.5q-259 0 -418 122t-159 302zM485 449q0 -65 34.5 -108.5t92.5 -43.5t92.5 43.5t34.5 108.5t-34.5 108t-92.5 43t-92.5 -43t-34.5 -108zM518 1061q0 -44 27 -74.5t65 -30.5t65 30.5 t27 74.5t-27 75t-65 31t-65 -31t-27 -75z" />
<glyph unicode="9" horiz-adv-x="1347" d="M82 963q0 236 150 380t434 144q274 0 437 -145t163 -379q0 -221 -154 -459l-330 -504h-471l338 489q-108 1 -208.5 32.5t-181 89.5t-129 149.5t-48.5 202.5zM522 979q0 -61 40 -105.5t112 -44.5t111.5 44.5t39.5 105.5q0 62 -39.5 106.5t-111.5 44.5t-112 -44.5 t-40 -106.5z" />
<glyph unicode=":" horiz-adv-x="669" d="M117 205q0 94 65.5 159.5t159.5 65.5q95 0 161 -65.5t66 -159.5t-66 -159.5t-161 -65.5q-94 0 -159.5 65.5t-65.5 159.5zM117 780q0 94 65.5 160t159.5 66q95 0 161 -66t66 -160t-66 -159.5t-161 -65.5q-94 0 -159.5 65.5t-65.5 159.5z" />
<glyph unicode=";" horiz-adv-x="741" d="M10 -164l219 576h424l-389 -576h-254zM201 780q0 94 65.5 160t159.5 66q95 0 161 -66t66 -160t-66 -159.5t-161 -65.5q-94 0 -159.5 65.5t-65.5 159.5z" />
<glyph unicode="&#x3c;" horiz-adv-x="720" d="M94 449v313l551 336v-314l-303 -178l289 -178v-313z" />
<glyph unicode="=" horiz-adv-x="1181" d="M137 207v262h934v-262h-934zM137 635v262h934v-262h-934z" />
<glyph unicode="&#x3e;" horiz-adv-x="720" d="M117 784v314l553 -336v-313l-539 -334v313l289 178z" />
<glyph unicode="?" horiz-adv-x="1273" d="M63 1026q1 64 20.5 126t64 120.5t108.5 103t160 71t213 26.5q148 0 262.5 -35.5t184.5 -99.5t105.5 -148t35.5 -186q0 -191 -113 -310t-273 -119v-69h-409v299h149q89 0 137 49t48 147q0 90 -32.5 129t-105.5 39t-105 -36.5t-32 -106.5h-418zM397 201q0 92 66 157.5 t158 65.5t157.5 -65.5t65.5 -157.5t-65.5 -158t-157.5 -66t-158 66t-66 158z" />
<glyph unicode="@" horiz-adv-x="1384" d="M51 821q0 119 44.5 231t125.5 201t205.5 143t273.5 54q141 0 262.5 -49t203 -131.5t127.5 -190.5t46 -225q0 -109 -24.5 -189.5t-86 -132t-157.5 -51.5q-145 0 -180 111q-38 -47 -103.5 -79t-148.5 -32q-137 0 -219 87.5t-82 207.5q0 63 22.5 123.5t64 109.5t107 79 t144.5 30q84 0 139.5 -31.5t79.5 -80.5l18 98h129l-75 -393q0 -127 120 -127q79 0 117.5 78t38.5 192q0 139 -74 255t-198.5 182.5t-270.5 66.5q-104 0 -193 -30t-153 -81.5t-110 -120t-68 -146t-22 -159.5q0 -102 37 -195.5t104.5 -166.5t172.5 -116.5t232 -43.5 q105 0 194.5 27t143.5 75l66 -79q-59 -56 -165 -90.5t-245 -34.5q-155 0 -280 52.5t-203 141t-119 199t-41 231.5zM471 784q0 -75 44 -127.5t126 -52.5q95 0 149 62t54 145q0 76 -44.5 130t-123.5 54q-95 0 -150 -64t-55 -147z" />
<glyph unicode="A" horiz-adv-x="1536" d="M47 0l463 1462h545l463 -1462h-463l-72 211h-399l-72 -211h-465zM682 537h197l-97 309z" />
<glyph unicode="B" horiz-adv-x="1339" d="M88 0v1462h717q185 0 298.5 -107.5t113.5 -277.5q0 -131 -47.5 -205t-129.5 -96q126 -27 208.5 -117.5t82.5 -234.5q0 -198 -121 -311t-344 -113h-778zM559 379h121q53 0 85 27.5t32 78.5t-32 78t-85 27h-121v-211zM559 936h78q52 0 80 28t28 78t-28.5 78.5t-79.5 28.5 h-78v-213z" />
<glyph unicode="C" horiz-adv-x="1132" d="M47 733q0 113 31 220.5t96 203t157 167t222.5 113.5t284.5 42q39 0 75.5 -4t74.5 -11t46 -8v-495q-88 32 -200 32q-127 0 -194 -73t-67 -187q0 -112 69 -187t192 -75q57 0 100 5.5t58 10.5t42 15v-504q-67 -18 -196 -18q-153 0 -283.5 42t-222.5 114.5t-157.5 168.5 t-96.5 204.5t-31 223.5z" />
<glyph unicode="D" horiz-adv-x="1505" d="M125 -2v1464h539q149 0 274.5 -39t213.5 -106.5t150 -158.5t91.5 -194t29.5 -214t-29.5 -218t-91.5 -203t-150 -169t-214 -116t-274 -44zM596 469h66q89 0 154.5 42t95.5 104.5t30 134.5q0 53 -18 102.5t-52 89.5t-88.5 64t-121.5 24h-66v-561z" />
<glyph unicode="E" horiz-adv-x="1107" d="M88 0v1462h942v-364h-473v-189h449v-366h-449v-176h473v-367h-942z" />
<glyph unicode="F" horiz-adv-x="1087" d="M88 0v1462h942v-364h-473v-232h449v-364h-449v-502h-469z" />
<glyph unicode="G" horiz-adv-x="1538" d="M51 731q0 114 30.5 222t94.5 203.5t153.5 167t215 113.5t272.5 42q103 0 195 -19t159 -48.5t125 -71.5t95.5 -83.5t68.5 -87.5l-446 -157q-28 48 -70.5 75t-126.5 27q-83 0 -144.5 -56t-90.5 -140.5t-29 -182.5q0 -102 30.5 -190t97 -146.5t157.5 -58.5q71 0 108.5 15.5 t57.5 47.5v136h-164v272h633v-508q-78 -130 -250 -226.5t-385 -96.5q-153 0 -283 42t-221.5 114t-156 168.5t-95.5 204.5t-31 222z" />
<glyph unicode="H" horiz-adv-x="1452" d="M80 0v1462h469v-555h354v555h469v-1462h-469v541h-354v-541h-469z" />
<glyph unicode="I" horiz-adv-x="679" d="M111 0v1462h471v-1462h-471z" />
<glyph unicode="J" horiz-adv-x="886" d="M76 18v359q42 -33 80 -33q69 0 111 43t42 129v946h471v-1024q0 -97 -32 -175.5t-83.5 -128.5t-119.5 -84t-136 -48t-137 -14q-95 0 -196 30z" />
<glyph unicode="K" horiz-adv-x="1388" d="M66 0v1462h469v-528l323 528h481l-411 -678l428 -784h-479l-342 629v-629h-469z" />
<glyph unicode="L" horiz-adv-x="1083" d="M80 0v1462h469v-1095h455v-367h-924z" />
<glyph unicode="M" horiz-adv-x="1933" d="M49 0l275 1462h481l178 -645l184 645h473l267 -1462h-471l-119 739l-193 -739h-266l-211 739l-127 -739h-471z" />
<glyph unicode="N" horiz-adv-x="1531" d="M80 0v1462h438l467 -704v704h469v-1462h-469l-436 672v-672h-469z" />
<glyph unicode="O" horiz-adv-x="1619" d="M37 729q0 114 30.5 222t94 204t153.5 168t218 114t278 42t278 -42t218 -114t153.5 -168t94 -204t30.5 -222q0 -144 -49.5 -276t-143 -238.5t-244 -170.5t-337.5 -64t-337.5 64t-244 170.5t-143 238.5t-49.5 276zM559 729q0 -81 27 -150.5t86 -116t139 -46.5t139 46.5 t86 116t27 150.5t-27 150.5t-86 116t-139 46.5t-139 -46.5t-86 -116t-27 -150.5z" />
<glyph unicode="P" horiz-adv-x="1263" d="M84 0v1462h661q130 0 236.5 -55t171 -161t64.5 -245q0 -112 -38.5 -200.5t-106.5 -144t-159 -84.5t-198 -29h-160v-543h-471zM555 895h78q50 0 79 28t29 78q0 48 -31 77.5t-77 29.5h-78v-213z" />
<glyph unicode="Q" horiz-adv-x="1640" d="M45 729q0 114 30.5 222t94 204t153.5 168t218 114t278 42t278 -42t218 -114t153.5 -168t94 -204t30.5 -222q0 -158 -60 -304.5t-175 -252.5l182 -272l-424 -115l-131 209q-71 -14 -166 -14q-187 0 -337.5 64t-244 170.5t-143 238.5t-49.5 276zM567 729q0 -81 27 -150.5 t86 -116t139 -46.5t139 46.5t86 116t27 150.5t-27 150.5t-86 116t-139 46.5t-139 -46.5t-86 -116t-27 -150.5z" />
<glyph unicode="R" horiz-adv-x="1372" d="M80 0v1462h655q104 0 191.5 -29.5t154 -86.5t103.5 -148t37 -207q0 -174 -59 -264t-173 -133l350 -594h-540l-240 459v-459h-479zM559 895h78q50 0 79 28t29 78q0 49 -29 78t-79 29h-78v-213z" />
<glyph unicode="S" horiz-adv-x="1226" d="M18 180l99 303q254 -145 391 -145q166 0 166 86q0 84 -185 113q-217 34 -327.5 156t-110.5 306q0 90 34.5 173.5t98.5 150.5t165 107t224 40q351 0 562 -133l-99 -315q-77 44 -182 73t-209 29q-41 0 -70.5 -24t-29.5 -56q0 -44 41.5 -70.5t138.5 -41.5 q227 -33 346 -157.5t119 -305.5q0 -97 -39 -183t-113 -153t-192 -106t-266 -39q-154 0 -302 54.5t-260 137.5z" />
<glyph unicode="T" horiz-adv-x="1128" d="M55 1065v397h1035v-397h-283v-1065h-471v1065h-281z" />
<glyph unicode="U" horiz-adv-x="1316" d="M70 469v993h469v-954q0 -55 33 -85t87 -30q55 0 89 30t34 85v954h469v-993q0 -96 -32.5 -176t-89 -136t-132 -95t-161 -57.5t-177.5 -18.5q-117 0 -221 30t-187.5 88t-132 152t-48.5 213z" />
<glyph unicode="V" horiz-adv-x="1495" d="M35 1462h481l240 -719l241 719h480l-543 -1462h-354z" />
<glyph unicode="W" horiz-adv-x="2215" d="M37 1462h473l201 -721l198 721h418l197 -721l194 721h473l-426 -1462h-448l-199 729l-198 -729h-449z" />
<glyph unicode="X" horiz-adv-x="1464" d="M29 1462h501l207 -329l195 329h508l-455 -739l447 -723h-506l-189 313l-198 -313h-500l444 727z" />
<glyph unicode="Y" horiz-adv-x="1411" d="M31 1462h481l197 -364l188 364h498l-455 -792v-670h-481v670z" />
<glyph unicode="Z" horiz-adv-x="1558" d="M33 0l676 1077h-574v385h1383l-680 -1075h649v-387h-1454z" />
<glyph unicode="[" horiz-adv-x="626" d="M123 -219v1849h407v-188h-145v-1473h145v-188h-407z" />
<glyph unicode="\" horiz-adv-x="710" d="M27 1536h209l440 -1610h-209z" />
<glyph unicode="]" horiz-adv-x="626" d="M121 -31h147v1473h-147v188h407v-1849h-407v188z" />
<glyph unicode="^" horiz-adv-x="804" d="M92 858l277 551h73l277 -551h-105l-208 338l-220 -338h-94z" />
<glyph unicode="_" horiz-adv-x="731" d="M0 -45h768v-145h-768v145z" />
<glyph unicode="`" horiz-adv-x="512" d="M82 1370l111 111l239 -240l-110 -111z" />
<glyph unicode="a" horiz-adv-x="1384" d="M61 496q0 100 30 191t86.5 165t148 118t204.5 44q196 0 283 -119v109h459v-1004h-459v115q-80 -135 -283 -135q-113 0 -204.5 44t-148 117.5t-86.5 164.5t-30 190zM485 514q0 -78 42.5 -134t117.5 -56t117.5 56t42.5 134t-42.5 134.5t-117.5 56.5t-117.5 -56.5 t-42.5 -134.5z" />
<glyph unicode="b" horiz-adv-x="1320" d="M74 0v1513h469v-614q107 119 282 119q110 0 199 -44.5t144.5 -118.5t84.5 -166.5t29 -192.5q0 -79 -18 -154t-55.5 -141.5t-90.5 -117t-128.5 -79.5t-164.5 -29q-99 0 -165 37t-117 99v-111h-469zM532 502q0 -73 40 -126.5t112 -53.5t112 53.5t40 126.5t-40 126.5 t-112 53.5t-112 -53.5t-40 -126.5z" />
<glyph unicode="c" horiz-adv-x="835" d="M29 494q0 100 30.5 191.5t88.5 165.5t151.5 118.5t208.5 44.5q161 0 289 -58v-307q-69 60 -148 60q-81 0 -126.5 -61t-45.5 -144q0 -85 45.5 -147t126.5 -62q90 0 148 67v-315q-46 -23 -70 -33.5t-85 -23.5t-134 -13q-93 0 -172 29t-134.5 78.5t-95 116t-58.5 141 t-19 152.5z" />
<glyph unicode="d" horiz-adv-x="1327" d="M43 496q0 100 29 192.5t84.5 166.5t144.5 118.5t199 44.5q175 0 282 -119v614h469v-1513h-469v111q-51 -62 -117 -99t-165 -37q-89 0 -164.5 29t-128.5 79.5t-90.5 117t-55.5 141.5t-18 154zM489 502q0 -73 40 -126.5t112 -53.5t112 53.5t40 126.5t-40 126.5t-112 53.5 t-112 -53.5t-40 -126.5z" />
<glyph unicode="e" horiz-adv-x="1212" d="M29 492q0 80 22.5 156t70 143t114.5 117.5t162.5 80t207.5 29.5q119 0 217 -29t164.5 -79t112.5 -118.5t67 -145t21 -161.5q0 -7 -1 -21.5t-1 -21.5h-707q0 -4 -1 -12.5t-1 -13.5q0 -27 5 -53.5t19 -58.5t45.5 -51.5t76.5 -19.5q53 0 78.5 24.5t48.5 76.5l430 -51 q-29 -64 -73.5 -117t-112.5 -99.5t-168 -73t-224 -26.5q-138 0 -249.5 45t-180.5 119.5t-106 167.5t-37 193zM485 635h267q0 46 -35.5 84.5t-100.5 38.5q-64 0 -97.5 -39.5t-33.5 -83.5z" />
<glyph unicode="f" horiz-adv-x="919" d="M61 690v314h115v96q0 422 451 422q34 0 72.5 -3t57.5 -5.5t64 -9t51 -7.5v-250q-82 19 -133 19q-94 0 -94 -133v-129h201v-314h-201v-690h-469v690h-115z" />
<glyph unicode="g" horiz-adv-x="1353" d="M53 514q0 99 28 190.5t80 165.5t136.5 118t189.5 44q213 0 301 -133v105h469v-971q0 -99 -36 -177t-96 -129t-144 -84t-175.5 -47t-195.5 -14q-80 0 -187 22t-171 48v280q9 -3 49 -16t57 -17t55.5 -12t79.5 -11t93 -3q97 0 149.5 41t52.5 154v45q-44 -57 -108.5 -87 t-192.5 -30q-105 0 -189.5 44t-136.5 118t-80 165.5t-28 190.5zM502 504q0 -73 40 -126.5t111 -53.5t111.5 53.5t40.5 126.5t-40.5 126.5t-111.5 53.5t-111 -53.5t-40 -126.5z" />
<glyph unicode="h" horiz-adv-x="1337" d="M106 0v1516h472v-613q24 48 97 82.5t163 34.5q199 0 307 -94.5t108 -257.5v-668h-428v575q0 54 -29 95t-94 41q-62 0 -93 -42t-31 -94v-575h-472z" />
<glyph unicode="i" horiz-adv-x="686" d="M96 1298q0 103 72.5 175.5t175.5 72.5t175.5 -72.5t72.5 -175.5t-72.5 -175t-175.5 -72t-175.5 72t-72.5 175zM111 0v1004h471v-1004h-471z" />
<glyph unicode="j" horiz-adv-x="688" d="M96 1298q0 103 72.5 175.5t175.5 72.5t175.5 -72.5t72.5 -175.5t-72.5 -175t-175.5 -72t-175.5 72t-72.5 175zM111 -418v1422h471v-1422h-471z" />
<glyph unicode="k" horiz-adv-x="1388" d="M115 0v1516h471v-908l241 396h482l-316 -500l363 -504h-522l-248 387v-387h-471z" />
<glyph unicode="l" horiz-adv-x="694" d="M115 0v1516h471v-1516h-471z" />
<glyph unicode="m" horiz-adv-x="2031" d="M78 0v1004h469v-107q30 24 54.5 40t68.5 37.5t101.5 32.5t125.5 11q211 0 317 -141q131 141 373 141q164 0 261.5 -88.5t97.5 -245.5v-684h-471v575q0 136 -111 136q-37 0 -62.5 -14.5t-36.5 -38t-15.5 -43.5t-4.5 -40v-575h-469v575q0 136 -117 136q-36 0 -61 -14.5 t-35.5 -38.5t-14 -43t-3.5 -40v-575h-467z" />
<glyph unicode="n" horiz-adv-x="1361" d="M106 0v1004h472v-144q120 160 354 160q176 0 260 -93t84 -259v-668h-469v608q0 23 -4.5 43.5t-15.5 42.5t-35.5 35.5t-59.5 13.5q-58 0 -86 -45t-28 -90v-608h-472z" />
<glyph unicode="o" horiz-adv-x="1236" d="M31 498q0 100 37.5 192.5t108.5 167.5t185.5 119.5t255.5 44.5q114 0 211 -29.5t165.5 -79.5t117 -117t71.5 -142.5t23 -155.5q0 -100 -38 -193t-108.5 -167.5t-185.5 -119.5t-256 -45t-255.5 45t-185.5 119.5t-108.5 167.5t-37.5 193zM467 498q0 -78 40 -134.5 t111 -56.5t111.5 56.5t40.5 134.5q0 77 -40.5 133.5t-111.5 56.5t-111 -56t-40 -134z" />
<glyph unicode="p" horiz-adv-x="1378" d="M121 -416v1420h469v-121q50 62 116.5 98.5t165.5 36.5q89 0 164.5 -29t128.5 -79t90.5 -116.5t55.5 -141.5t18 -154q0 -100 -29 -192.5t-84.5 -167t-144.5 -119t-199 -44.5q-175 0 -282 119v-510h-469zM580 492q0 -74 39.5 -127.5t111.5 -53.5t112 54t40 127t-40 126.5 t-112 53.5t-111.5 -53.5t-39.5 -126.5z" />
<glyph unicode="q" horiz-adv-x="1337" d="M43 498q0 79 18 154t55.5 141.5t90.5 116.5t128.5 79t164.5 29q99 0 165.5 -36.5t116.5 -98.5v121h469v-1420h-469v510q-107 -119 -282 -119q-110 0 -199 44.5t-144.5 119t-84.5 167t-29 192.5zM489 492q0 -73 40 -127t112 -54t112 54t40 127t-40 126.5t-112 53.5 t-112 -53.5t-40 -126.5z" />
<glyph unicode="r" horiz-adv-x="1013" d="M104 0v1004h471v-91q106 115 359 115v-375q-143 0 -228 -36t-131 -123v-494h-471z" />
<glyph unicode="s" horiz-adv-x="1060" d="M31 104l116 211q156 -61 279 -61q94 0 94 45q0 55 -139 76q-143 22 -217 99t-74 204q0 148 123.5 242t329.5 94q242 0 428 -66l-82 -246q-136 35 -264 35q-101 0 -101 -49q0 -25 28 -37.5t93 -15.5q183 -9 281 -92t98 -213q0 -164 -131 -259.5t-399 -95.5q-119 0 -240 35 t-223 94z" />
<glyph unicode="t" horiz-adv-x="899" d="M76 690v314h114v288h469v-288h166v-314h-166v-690h-469v690h-114z" />
<glyph unicode="u" horiz-adv-x="1296" d="M88 436v568h459v-564q0 -52 28 -85t76 -33q50 0 77.5 32.5t27.5 85.5v564h461v-568q0 -213 -145 -336t-421 -123q-275 0 -419 123t-144 336z" />
<glyph unicode="v" horiz-adv-x="1228" d="M39 1004h424l162 -435l137 435h448l-417 -1004h-336z" />
<glyph unicode="w" horiz-adv-x="1855" d="M31 1004h420l163 -408l138 408h356l145 -416l148 416h440l-418 -1006h-331l-158 408l-156 -406l-332 -2z" />
<glyph unicode="x" horiz-adv-x="1357" d="M41 0l391 516l-362 488h479l131 -179l125 179h481l-371 -490l398 -514h-482l-151 205l-156 -205h-483z" />
<glyph unicode="y" horiz-adv-x="1259" d="M25 1004h481l123 -345l147 345h473l-633 -1422h-460l245 561z" />
<glyph unicode="z" horiz-adv-x="1169" d="M86 0l322 643h-318v358h1000l-299 -634h299v-367h-1004z" />
<glyph unicode="{" horiz-adv-x="700" d="M80 727q113 68 113 184v396q0 70 24 125.5t64 91t97 58.5t119 32.5t134 9.5v-158q-59 0 -95 -11t-54 -36t-23.5 -54.5t-5.5 -78.5v-362q0 -63 -44.5 -117t-109.5 -80q65 -26 109.5 -80t44.5 -117v-419q0 -37 3 -61t13.5 -47.5t29.5 -36.5t52 -21t80 -8v-158 q-72 0 -134 9.5t-119 32.5t-97 58.5t-64 91t-24 125.5v447q0 57 -30 104.5t-83 79.5z" />
<glyph unicode="|" horiz-adv-x="407" d="M113 -94v1640h188v-1640h-188z" />
<glyph unicode="}" horiz-adv-x="679" d="M78 -63q47 0 80 8t52 21t29.5 36.5t13.5 47.5t3 61v419q0 63 44.5 117t109.5 80q-65 26 -109.5 80t-44.5 117v362q0 49 -5.5 78.5t-23.5 54.5t-54 36t-95 11v158q72 0 134 -9.5t119 -32.5t97 -58.5t64 -91t24 -125.5v-396q0 -116 113 -184q-53 -32 -83 -79.5t-30 -104.5 v-447q0 -70 -24 -125.5t-64 -91t-97 -58.5t-119 -32.5t-134 -9.5v158z" />
<glyph unicode="~" horiz-adv-x="940" d="M88 860q112 125 256 125q76 0 156 -45q31 -16 44.5 -23t42.5 -14.5t60 -7.5q102 0 162 68l80 -91q-98 -106 -240 -106q-91 0 -168 43q-5 3 -25.5 14t-27.5 14.5t-23.5 10t-30.5 8.5t-30 2q-47 0 -85 -14.5t-56.5 -29.5t-42.5 -40z" />
<glyph unicode="&#xa1;" horiz-adv-x="751" d="M154 -279v965h471v-965h-471zM160 975q0 92 65.5 157.5t157.5 65.5t157.5 -65.5t65.5 -157.5t-65.5 -157.5t-157.5 -65.5t-157.5 65.5t-65.5 157.5z" />
<glyph unicode="&#xa2;" horiz-adv-x="929" d="M111 694q0 168 98 284t268 126v119h139v-117q127 -9 207 -72v-227q-74 78 -190 78q-94 0 -144.5 -55t-50.5 -130q0 -79 52.5 -137.5t142.5 -58.5q124 0 190 76v-232q-78 -54 -207 -65v-125h-139v125q-182 20 -274 128t-92 283z" />
<glyph unicode="&#xa3;" horiz-adv-x="1181" d="M70 254q30 31 83 59.5t95 40.5q80 96 55 258h-174v160h141q-10 40 -29.5 82.5t-35 72t-27.5 83t-12 120.5q0 144 119 243.5t329 99.5q134 0 223.5 -26.5t137.5 -80.5t67 -123t19 -168h-258v4q0 45 -9 73t-28 40.5t-36.5 16t-47.5 3.5q-49 0 -78 -30t-29 -88 q0 -59 22 -110.5t50.5 -105.5t38.5 -106h236v-160h-209q4 -58 4 -86q0 -53 -19 -115.5t-47 -99.5q26 0 78 -15t98 -15q57 0 123.5 24.5t98.5 59.5l45 -232q-138 -145 -330 -145q-111 0 -207 45q-33 16 -52 24t-55.5 15.5t-78.5 7.5q-74 0 -119 -17t-111 -65z" />
<glyph unicode="&#xa5;" horiz-adv-x="1421" d="M41 1460h489l189 -319l188 321h492l-449 -721h209v-114h-209v-84h209v-115h-209v-428h-479v428h-209v115h209v84h-209v114h209z" />
<glyph unicode="&#xa6;" horiz-adv-x="303" d="M94 0v553h111v-553h-111zM94 772v608h111v-608h-111z" />
<glyph unicode="&#xa7;" horiz-adv-x="1499" d="M57 700q0 132 80 242t207 131q-37 64 -37 131q0 138 107 216.5t321 78.5q143 0 237.5 -15.5t190.5 -49.5l-82 -246q-123 35 -264 35q-45 0 -76.5 -18.5t-31.5 -61.5q0 -48 26 -63t113 -23q299 -25 441.5 -148.5t142.5 -316.5q0 -305 -246 -389q8 -27 8 -90 q0 -148 -133.5 -237t-378.5 -89q-102 0 -227 32t-232 97l117 211q107 -55 266 -55q70 0 98.5 18.5t28.5 61.5t-35 58.5t-194 47.5q-219 44 -333 156t-114 286zM461 643q0 -98 80 -153.5t202 -55.5q121 0 202 56t81 153q0 92 -82 150.5t-201 58.5q-122 0 -202 -55.5 t-80 -153.5z" />
<glyph unicode="&#xa8;" horiz-adv-x="1079" d="M80 1292q0 82 57 139.5t139 57.5t139.5 -57.5t57.5 -139.5t-57.5 -139t-139.5 -57t-139 57t-57 139zM608 1292q0 82 57.5 139.5t139.5 57.5t139 -57.5t57 -139.5t-57 -139t-139 -57t-139.5 57t-57.5 139z" />
<glyph unicode="&#xa9;" horiz-adv-x="1204" d="M80 797q0 146 72 270t196 196t270 72t270 -72t196.5 -196t72.5 -270t-72.5 -270t-196.5 -196.5t-270 -72.5t-270 72.5t-196 196.5t-72 270zM123 799q0 -205 146.5 -351.5t351.5 -146.5q135 0 249.5 67t181 181.5t66.5 249.5q0 205 -146 351t-351 146q-135 0 -249.5 -66.5 t-181.5 -181t-67 -249.5zM352 807q0 100 70 173t196 73q113 0 195 -78v-49q-82 86 -195 86q-106 0 -165.5 -61t-59.5 -144t59.5 -145t165.5 -62q72 0 116.5 26.5t78.5 71.5v-63q-72 -76 -195 -76q-125 0 -195.5 74t-70.5 174z" />
<glyph unicode="&#xaa;" horiz-adv-x="847" d="M100 633v149h668v-149h-668zM113 1122q0 106 61.5 183t173.5 77q95 0 141 -59v53h230v-502h-230v58q-43 -68 -141 -68q-112 0 -173.5 76.5t-61.5 181.5zM326 1133q0 -40 21 -68.5t59 -28.5t58.5 28.5t20.5 68.5q0 38 -20.5 66t-58.5 28t-59 -28t-21 -66z" />
<glyph unicode="&#xab;" horiz-adv-x="1277" d="M45 543v168l508 370l139 -202l-362 -252l362 -256l-139 -197zM610 543v168l508 370l137 -202l-360 -252l360 -256l-137 -197z" />
<glyph unicode="&#xac;" d="M61 721v117h695v-117h-695zM131 176q0 117 111 164q-28 16 -43.5 29t-30 44.5t-14.5 75.5q0 73 67 125t172 52t174.5 -52.5t69.5 -124.5q0 -33 -7.5 -58.5t-23 -43t-27 -26t-32.5 -21.5q23 -10 36 -17.5t34 -26t31.5 -49t10.5 -71.5q0 -82 -73.5 -138t-190.5 -56 q-118 0 -191 56t-73 138zM229 1397v168h283v-672h-215v504h-68zM336 199q0 -30 15.5 -50t41.5 -20q27 0 43.5 20t16.5 50t-16.5 49.5t-43.5 19.5q-26 0 -41.5 -19.5t-15.5 -49.5zM350 477q0 -20 12 -33.5t31 -13.5q17 0 29 13.5t12 33.5q0 21 -12 35t-29 14q-19 0 -31 -13.5 t-12 -35.5z" />
<glyph unicode="&#xad;" horiz-adv-x="1222" d="M147 375v313h936v-313h-936z" />
<glyph unicode="&#xae;" horiz-adv-x="858" d="M106 1104q0 133 95 228t229 95t229 -95t95 -228q0 -134 -95 -229t-229 -95t-229 95t-95 229zM137 1104q0 -122 85.5 -207.5t207.5 -85.5t207.5 85.5t85.5 207.5t-85.5 207.5t-207.5 85.5t-207.5 -85.5t-85.5 -207.5zM317 926v372h144q47 0 75.5 -28.5t28.5 -71.5 q0 -49 -28 -74.5t-76 -25.5h-17l121 -172h-37l-118 172h-64v-172h-29zM346 1126h117q74 0 74 72q0 31 -19.5 51.5t-54.5 20.5h-117v-144z" />
<glyph unicode="&#xaf;" horiz-adv-x="919" d="M86 1143v149h784v-149h-784z" />
<glyph unicode="&#xb0;" horiz-adv-x="542" d="M74 1239q0 88 62.5 150.5t150.5 62.5t150.5 -62.5t62.5 -150.5t-62.5 -150.5t-150.5 -62.5t-150.5 62.5t-62.5 150.5zM143 1239q0 -60 43 -102.5t103 -42.5t102.5 42.5t42.5 102.5t-42.5 102.5t-102.5 42.5t-103 -42.5t-43 -102.5z" />
<glyph unicode="&#xb1;" horiz-adv-x="1169" d="M119 123v262h940v-262h-940zM119 782v314h313v313h313v-313h314v-314h-314v-313h-313v313h-313z" />
<glyph unicode="&#xb2;" d="M119 895v111l100 77q30 23 77 66t98.5 110.5t51.5 110.5q0 64 -57 64t-57 -93h-193q1 37 14.5 74t42 74t83 60.5t127.5 23.5q134 0 201 -52.5t67 -144.5q0 -166 -236 -313h236v-168h-555z" />
<glyph unicode="&#xb3;" d="M150 1098h192q3 -56 55 -56q56 0 56 66q0 41 -19.5 52t-64.5 11v138q44 0 64 11t20 40t-12.5 42t-43.5 13q-51 0 -51 -57h-192q1 40 12.5 74.5t37.5 67.5t76.5 52t120.5 19q250 0 250 -185q0 -58 -29.5 -88t-78.5 -47q50 -14 89.5 -51t39.5 -104q0 -101 -68 -157 t-196 -56q-69 0 -120.5 20t-79.5 53t-42 68t-16 74z" />
<glyph unicode="&#xb4;" horiz-adv-x="532" d="M80 1241l239 240l111 -111l-240 -240z" />
<glyph unicode="&#xb5;" d="M61 721v117h695v-117h-695zM119 -6v110l100 78q30 23 77 66t98.5 110.5t51.5 110.5q0 63 -57 63t-57 -92h-193q1 37 14.5 74t42 74t83 60.5t127.5 23.5q134 0 201 -52.5t67 -144.5q0 -166 -236 -313h236v-168h-555zM227 1397v168h283v-672h-215v504h-68z" />
<glyph unicode="&#xb6;" horiz-adv-x="1273" d="M82 1001q0 207 131.5 334t337.5 127h315v-1659h-209v740h-73q-229 0 -365.5 124.5t-136.5 333.5zM971 -197v1659h211v-1659h-211z" />
<glyph unicode="&#xb7;" horiz-adv-x="825" d="M182 752q0 92 64.5 156.5t156.5 64.5t157 -64.5t65 -156.5t-65 -157t-157 -65t-156.5 65t-64.5 157z" />
<glyph unicode="&#xb8;" horiz-adv-x="495" d="M113 -164q26 -26 65 -26q19 0 30 11t11 27q0 4 -1 7.5t-2.5 7t-3.5 6.5t-5.5 6.5l-5.5 5.5l-6 6t-6 5.5t-7 5t-6 4.5l43 98h111l-45 -92q82 -44 82 -117q0 -50 -35 -79t-92 -29q-71 0 -127 38v115z" />
<glyph unicode="&#xb9;" d="M229 1397v168h283v-672h-215v504h-68z" />
<glyph unicode="&#xba;" horiz-adv-x="811" d="M68 635v149h667v-149h-667zM92 1128q0 110 79.5 190.5t221.5 80.5q97 0 167.5 -40.5t103 -100.5t32.5 -130q0 -110 -79.5 -190t-223.5 -80q-142 0 -221.5 80t-79.5 190zM315 1128q0 -40 21 -69t57 -29q38 0 59 29t21 69t-21 69.5t-59 29.5q-36 0 -57 -29.5t-21 -69.5z " />
<glyph unicode="&#xbb;" horiz-adv-x="1277" d="M45 371l363 256l-363 252l139 202l508 -370v-168l-508 -369zM621 371l362 256l-362 252l137 202l508 -370v-168l-508 -369z" />
<glyph unicode="&#xbc;" d="M61 721v117h695v-117h-695zM100 115v153l222 402h301v-387h71v-168h-71v-119h-211v119h-312zM229 1397v168h283v-672h-215v504h-68zM317 283h95v190z" />
<glyph unicode="&#xbd;" d="M61 721v117h695v-117h-695zM119 -6v110l100 78q30 23 77 66t98.5 110.5t51.5 110.5q0 63 -57 63t-57 -92h-193q1 37 14.5 74t42 74t83 60.5t127.5 23.5q134 0 201 -52.5t67 -144.5q0 -166 -236 -313h236v-168h-555zM227 1397v168h283v-672h-215v504h-68z" />
<glyph unicode="&#xbe;" d="M61 721v117h695v-117h-695zM100 115v153l222 402h301v-387h71v-168h-71v-119h-211v119h-312zM150 1098h192q3 -56 55 -56q56 0 56 66q0 41 -19.5 52t-64.5 11v138q44 0 64 11t20 40t-12.5 42t-43.5 13q-51 0 -51 -57h-192q1 40 12.5 74.5t37.5 67.5t76.5 52t120.5 19 q250 0 250 -185q0 -58 -29.5 -88t-78.5 -47q50 -14 89.5 -51t39.5 -104q0 -101 -68 -157t-196 -56q-69 0 -120.5 20t-79.5 53t-42 68t-16 74zM317 283h95v190z" />
<glyph unicode="&#xbf;" horiz-adv-x="1347" d="M80 150q0 191 112.5 309.5t272.5 118.5v69h409v-299h-149q-89 0 -136.5 -49t-47.5 -147q0 -90 32 -129t105 -39t105 36.5t32 106.5h418q-1 -81 -33.5 -157.5t-97.5 -142.5t-177 -106t-257 -40q-148 0 -262.5 35.5t-184.5 99.5t-105.5 148t-35.5 186zM453 952 q0 92 65.5 158t157.5 66t157.5 -66t65.5 -158t-65.5 -157.5t-157.5 -65.5t-157.5 65.5t-65.5 157.5z" />
<glyph unicode="&#xc0;" horiz-adv-x="1536" d="M47 0l463 1462h545l463 -1462h-463l-72 211h-399l-72 -211h-465zM535 1724l98 99l215 -215l-98 -99zM682 537h197l-97 309z" />
<glyph unicode="&#xc1;" horiz-adv-x="1536" d="M47 0l463 1462h545l463 -1462h-463l-72 211h-399l-72 -211h-465zM682 537h197l-97 309zM692 1612l215 215l99 -98l-215 -216z" />
<glyph unicode="&#xc2;" horiz-adv-x="1536" d="M47 0l463 1462h545l463 -1462h-463l-72 211h-399l-72 -211h-465zM492 1614l258 256h75l256 -256l-100 -101l-190 193l-197 -197zM682 537h197l-97 309z" />
<glyph unicode="&#xc3;" horiz-adv-x="1536" d="M47 0l463 1462h545l463 -1462h-463l-72 211h-399l-72 -211h-465zM371 1659q112 125 256 125q75 0 155 -45q30 -16 44.5 -23t43.5 -14.5t60 -7.5q103 0 162 67l79 -90q-45 -48 -100 -77t-139 -29q-91 0 -168 43q-5 3 -25.5 14t-27.5 14.5t-23.5 10t-30.5 8.5t-30 2 q-47 0 -85 -14.5t-57 -29.5t-43 -40zM682 537h197l-97 309z" />
<glyph unicode="&#xc4;" horiz-adv-x="1536" d="M47 0l463 1462h545l463 -1462h-463l-72 211h-399l-72 -211h-465zM387 1686q0 65 46 111t112 46q65 0 111 -46.5t46 -110.5q0 -65 -46.5 -111.5t-110.5 -46.5q-66 0 -112 46.5t-46 111.5zM682 537h197l-97 309zM852 1686q0 64 46.5 110.5t111.5 46.5q66 0 111.5 -46 t45.5 -111t-45.5 -111.5t-111.5 -46.5q-64 0 -111 47t-47 111z" />
<glyph unicode="&#xc5;" horiz-adv-x="1536" d="M47 0l463 1462h545l463 -1462h-463l-72 211h-399l-72 -211h-465zM608 1677q0 71 50 120.5t120 49.5t120 -49.5t50 -120.5t-50 -120.5t-120 -49.5t-120 49.5t-50 120.5zM664 1677q0 -47 34.5 -81.5t81.5 -34.5t82 34.5t35 81.5t-35 82t-82 35t-81.5 -35t-34.5 -82z M682 537h197l-97 309z" />
<glyph unicode="&#xc6;" horiz-adv-x="1880" d="M35 0l557 1462h1180v-364h-472v-193h451v-366h-453v-172h474v-367h-943v219h-241l-72 -219h-481zM696 543h133v418z" />
<glyph unicode="&#xc7;" horiz-adv-x="1132" d="M47 733q0 113 31 220.5t96 203t157 167t222.5 113.5t284.5 42q39 0 75.5 -4t74.5 -11t46 -8v-495q-88 32 -200 32q-127 0 -194 -73t-67 -187q0 -112 69 -187t192 -75q57 0 100 5.5t58 10.5t42 15v-504q-67 -18 -194 -18l-27 -66q102 -54 102 -145q0 -62 -43.5 -99 t-113.5 -37q-89 0 -160 50v141q37 -33 82 -33q25 0 39 14t14 35q0 13 -10.5 27t-18.5 20.5t-26 18.5l35 80q-160 19 -289.5 89.5t-210 174t-123.5 227t-43 256.5z" />
<glyph unicode="&#xc8;" horiz-adv-x="1107" d="M88 0v1462h942v-364h-473v-189h449v-366h-449v-176h473v-367h-942zM375 1729l98 98l215 -215l-98 -99z" />
<glyph unicode="&#xc9;" horiz-adv-x="1107" d="M88 0v1462h942v-364h-473v-189h449v-366h-449v-176h473v-367h-942zM467 1608l215 215l98 -99l-215 -215z" />
<glyph unicode="&#xca;" horiz-adv-x="1107" d="M88 0v1462h942v-364h-473v-189h449v-366h-449v-176h473v-367h-942zM266 1655l258 256h76l254 -256l-100 -101l-189 193l-196 -197z" />
<glyph unicode="&#xcb;" horiz-adv-x="1107" d="M88 0v1462h942v-364h-473v-189h449v-366h-449v-176h473v-367h-942zM174 1686q0 65 46 111t112 46q64 0 110.5 -46.5t46.5 -110.5q0 -65 -46.5 -111.5t-110.5 -46.5q-66 0 -112 46.5t-46 111.5zM639 1686q0 64 46.5 110.5t111.5 46.5q66 0 111.5 -46t45.5 -111 t-45.5 -111.5t-111.5 -46.5q-65 0 -111.5 47t-46.5 111z" />
<glyph unicode="&#xcc;" horiz-adv-x="686" d="M111 0v1462h471v-1462h-471zM145 1729l99 98l215 -215l-99 -99z" />
<glyph unicode="&#xcd;" horiz-adv-x="679" d="M111 0v1462h471v-1462h-471zM258 1612l215 215l98 -98l-215 -216z" />
<glyph unicode="&#xce;" horiz-adv-x="679" d="M53 1655l258 256h76l254 -256l-100 -101l-191 193l-194 -197zM111 0v1462h471v-1462h-471z" />
<glyph unicode="&#xcf;" horiz-adv-x="647" d="M-41 1686q0 65 46 111t112 46q65 0 111 -46.5t46 -110.5q0 -65 -46.5 -111.5t-110.5 -46.5q-66 0 -112 46.5t-46 111.5zM111 0v1462h471v-1462h-471zM403 1686q0 64 46.5 110.5t111.5 46.5q66 0 112 -46t46 -111t-46 -111.5t-112 -46.5q-65 0 -111.5 47t-46.5 111z" />
<glyph unicode="&#xd0;" horiz-adv-x="1505" d="M25 647v205h100v610h539q149 0 274.5 -39t213.5 -106.5t150 -158.5t91.5 -194t29.5 -214t-29.5 -218t-91.5 -203t-150 -169t-214 -116t-274 -44l-539 -2v649h-100zM596 469h66q89 0 154.5 42t95.5 104.5t30 134.5q0 53 -18 102.5t-52 89.5t-88.5 64t-121.5 24h-66v-178 h129v-205h-129v-178z" />
<glyph unicode="&#xd1;" horiz-adv-x="1531" d="M80 0v1462h438l467 -704v704h469v-1462h-469l-436 672v-672h-469zM336 1659q112 125 256 125q76 0 156 -45q31 -16 44.5 -23t42.5 -14.5t60 -7.5q103 0 162 67l80 -90q-98 -106 -240 -106q-91 0 -168 43q-5 3 -25.5 14t-27.5 14.5t-23.5 10t-30.5 8.5t-30 2 q-47 0 -85 -14.5t-56.5 -29.5t-42.5 -40z" />
<glyph unicode="&#xd2;" horiz-adv-x="1619" d="M37 729q0 114 30.5 222t94 204t153.5 168t218 114t278 42t278 -42t218 -114t153.5 -168t94 -204t30.5 -222q0 -144 -49.5 -276t-143 -238.5t-244 -170.5t-337.5 -64t-337.5 64t-244 170.5t-143 238.5t-49.5 276zM559 729q0 -81 27 -150.5t86 -116t139 -46.5t139 46.5 t86 116t27 150.5t-27 150.5t-86 116t-139 46.5t-139 -46.5t-86 -116t-27 -150.5zM690 1729l98 98l216 -215l-99 -99z" />
<glyph unicode="&#xd3;" horiz-adv-x="1619" d="M37 729q0 114 30.5 222t94 204t153.5 168t218 114t278 42t278 -42t218 -114t153.5 -168t94 -204t30.5 -222q0 -144 -49.5 -276t-143 -238.5t-244 -170.5t-337.5 -64t-337.5 64t-244 170.5t-143 238.5t-49.5 276zM559 729q0 -81 27 -150.5t86 -116t139 -46.5t139 46.5 t86 116t27 150.5t-27 150.5t-86 116t-139 46.5t-139 -46.5t-86 -116t-27 -150.5zM692 1612l215 215l99 -98l-215 -216z" />
<glyph unicode="&#xd4;" horiz-adv-x="1619" d="M37 729q0 114 30.5 222t94 204t153.5 168t218 114t278 42t278 -42t218 -114t153.5 -168t94 -204t30.5 -222q0 -144 -49.5 -276t-143 -238.5t-244 -170.5t-337.5 -64t-337.5 64t-244 170.5t-143 238.5t-49.5 276zM512 1614l260 256h74l256 -256l-101 -101l-190 193 l-197 -197zM559 729q0 -81 27 -150.5t86 -116t139 -46.5t139 46.5t86 116t27 150.5t-27 150.5t-86 116t-139 46.5t-139 -46.5t-86 -116t-27 -150.5z" />
<glyph unicode="&#xd5;" horiz-adv-x="1619" d="M37 729q0 114 30.5 222t94 204t153.5 168t218 114t278 42t278 -42t218 -114t153.5 -168t94 -204t30.5 -222q0 -144 -49.5 -276t-143 -238.5t-244 -170.5t-337.5 -64t-337.5 64t-244 170.5t-143 238.5t-49.5 276zM410 1659q112 125 256 125q75 0 155 -45q30 -16 44.5 -23 t43.5 -14.5t60 -7.5q102 0 161 67l80 -90q-45 -48 -100.5 -77t-138.5 -29q-91 0 -168 43q-5 3 -25.5 14t-27.5 14.5t-23.5 10t-30.5 8.5t-30 2q-47 0 -85 -14.5t-57 -29.5t-43 -40zM559 729q0 -81 27 -150.5t86 -116t139 -46.5t139 46.5t86 116t27 150.5t-27 150.5t-86 116 t-139 46.5t-139 -46.5t-86 -116t-27 -150.5z" />
<glyph unicode="&#xd6;" horiz-adv-x="1619" d="M37 729q0 114 30.5 222t94 204t153.5 168t218 114t278 42t278 -42t218 -114t153.5 -168t94 -204t30.5 -222q0 -144 -49.5 -276t-143 -238.5t-244 -170.5t-337.5 -64t-337.5 64t-244 170.5t-143 238.5t-49.5 276zM416 1686q0 65 45.5 111t111.5 46q65 0 111.5 -46.5 t46.5 -110.5t-46.5 -111t-111.5 -47q-66 0 -111.5 46.5t-45.5 111.5zM559 729q0 -81 27 -150.5t86 -116t139 -46.5t139 46.5t86 116t27 150.5t-27 150.5t-86 116t-139 46.5t-139 -46.5t-86 -116t-27 -150.5zM881 1686q0 64 46.5 110.5t110.5 46.5q66 0 112 -46t46 -111 t-46 -111.5t-112 -46.5q-64 0 -110.5 46.5t-46.5 111.5z" />
<glyph unicode="&#xd7;" horiz-adv-x="1155" d="M78 115l401 403l-401 402l98 98l402 -404l403 404l98 -98l-403 -402l403 -403l-98 -99l-403 404l-402 -404z" />
<glyph unicode="&#xd8;" horiz-adv-x="1619" d="M45 729q0 114 30.5 222t94 204t153.5 168t218 114t278 42q174 0 330 -60l53 86h209l-106 -174q141 -104 214.5 -264t73.5 -338q0 -144 -49.5 -276t-143 -238.5t-244 -170.5t-337.5 -64q-174 0 -319 57l-47 -78h-207l98 160q-145 103 -222 265.5t-77 344.5zM567 729 q0 -101 43 -180l295 477q-43 16 -86 16q-80 0 -139 -46.5t-86 -116t-27 -150.5zM743 428q35 -12 76 -12q80 0 139 46.5t86 116t27 150.5q0 93 -37 168z" />
<glyph unicode="&#xd9;" horiz-adv-x="1316" d="M70 469v993h469v-954q0 -55 33 -85t87 -30q55 0 89 30t34 85v954h469v-993q0 -96 -32.5 -176t-89 -136t-132 -95t-161 -57.5t-177.5 -18.5q-117 0 -221 30t-187.5 88t-132 152t-48.5 213zM432 1729l98 98l215 -215l-98 -99z" />
<glyph unicode="&#xda;" horiz-adv-x="1316" d="M70 469v993h469v-954q0 -55 33 -85t87 -30q55 0 89 30t34 85v954h469v-993q0 -96 -32.5 -176t-89 -136t-132 -95t-161 -57.5t-177.5 -18.5q-117 0 -221 30t-187.5 88t-132 152t-48.5 213zM553 1612l215 215l98 -98l-215 -216z" />
<glyph unicode="&#xdb;" horiz-adv-x="1316" d="M70 469v993h469v-954q0 -55 33 -85t87 -30q55 0 89 30t34 85v954h469v-993q0 -96 -32.5 -176t-89 -136t-132 -95t-161 -57.5t-177.5 -18.5q-117 0 -221 30t-187.5 88t-132 152t-48.5 213zM367 1614l258 256h75l254 -256l-100 -101l-190 193l-195 -197z" />
<glyph unicode="&#xdc;" horiz-adv-x="1316" d="M70 469v993h469v-954q0 -55 33 -85t87 -30q55 0 89 30t34 85v954h469v-993q0 -96 -32.5 -176t-89 -136t-132 -95t-161 -57.5t-177.5 -18.5q-117 0 -221 30t-187.5 88t-132 152t-48.5 213zM270 1686q0 65 46 111t112 46q65 0 111.5 -46.5t46.5 -110.5t-47 -111t-111 -47 q-66 0 -112 46.5t-46 111.5zM735 1686q0 64 46.5 110.5t111.5 46.5q66 0 112 -46t46 -111t-46 -111.5t-112 -46.5q-65 0 -111.5 47t-46.5 111z" />
<glyph unicode="&#xdd;" horiz-adv-x="1411" d="M31 1462h481l197 -364l188 364h498l-455 -792v-670h-481v670zM610 1608l215 215l99 -99l-215 -215z" />
<glyph unicode="&#xde;" horiz-adv-x="1263" d="M84 0v1462h471v-241h190q130 0 236.5 -55t171 -161t64.5 -245q0 -149 -67.5 -254.5t-179 -155t-255.5 -49.5h-160v-301h-471zM555 653h78q50 0 79 28t29 79q0 48 -31 77t-77 29h-78v-213z" />
<glyph unicode="&#xdf;" horiz-adv-x="1671" d="M63 690v314h115q0 148 91 258.5t235.5 164.5t318.5 54q176 0 317 -45.5t224.5 -133t83.5 -202.5q0 -113 -33 -170.5t-100 -89.5q42 -12 78.5 -31t74 -52.5t64 -77t43 -108.5t16.5 -143q0 -94 -33 -169.5t-84.5 -122.5t-120 -78.5t-135 -44.5t-133.5 -13h-292v313h143 q89 0 135.5 48.5t46.5 136.5t-69.5 136t-233.5 48v258q81 0 110 28.5t29 92.5q0 50 -39.5 79t-101.5 29q-78 0 -122 -35.5t-44 -95.5v-1038h-469v690h-115z" />
<glyph unicode="&#xe0;" horiz-adv-x="1384" d="M61 496q0 100 30 191t86.5 165t148 118t204.5 44q196 0 283 -119v109h459v-1004h-459v115q-80 -135 -283 -135q-113 0 -204.5 44t-148 117.5t-86.5 164.5t-30 190zM365 1370l110 111l240 -240l-111 -111zM485 514q0 -78 42.5 -134t117.5 -56t117.5 56t42.5 134 t-42.5 134.5t-117.5 56.5t-117.5 -56.5t-42.5 -134.5z" />
<glyph unicode="&#xe1;" horiz-adv-x="1384" d="M61 496q0 100 30 191t86.5 165t148 118t204.5 44q196 0 283 -119v109h459v-1004h-459v115q-80 -135 -283 -135q-113 0 -204.5 44t-148 117.5t-86.5 164.5t-30 190zM485 514q0 -78 42.5 -134t117.5 -56t117.5 56t42.5 134t-42.5 134.5t-117.5 56.5t-117.5 -56.5 t-42.5 -134.5zM510 1241l240 240l110 -111l-239 -240z" />
<glyph unicode="&#xe2;" horiz-adv-x="1384" d="M61 496q0 100 30 191t86.5 165t148 118t204.5 44q196 0 283 -119v109h459v-1004h-459v115q-80 -135 -283 -135q-113 0 -204.5 44t-148 117.5t-86.5 164.5t-30 190zM344 1204l260 256h76l254 -256l-100 -100l-191 192l-197 -196zM485 514q0 -78 42.5 -134t117.5 -56 t117.5 56t42.5 134t-42.5 134.5t-117.5 56.5t-117.5 -56.5t-42.5 -134.5z" />
<glyph unicode="&#xe3;" horiz-adv-x="1384" d="M61 496q0 100 30 191t86.5 165t148 118t204.5 44q196 0 283 -119v109h459v-1004h-459v115q-80 -135 -283 -135q-113 0 -204.5 44t-148 117.5t-86.5 164.5t-30 190zM262 1278q112 125 256 125q76 0 156 -45q31 -16 44.5 -23t42.5 -14.5t60 -7.5q103 0 162 67l80 -90 q-98 -106 -240 -106q-91 0 -168 43q-5 3 -25.5 14t-27.5 14.5t-23.5 10t-30.5 8.5t-30 2q-47 0 -85 -14.5t-56.5 -29.5t-42.5 -40zM485 514q0 -78 42.5 -134t117.5 -56t117.5 56t42.5 134t-42.5 134.5t-117.5 56.5t-117.5 -56.5t-42.5 -134.5z" />
<glyph unicode="&#xe4;" horiz-adv-x="1384" d="M61 496q0 100 30 191t86.5 165t148 118t204.5 44q196 0 283 -119v109h459v-1004h-459v115q-80 -135 -283 -135q-113 0 -204.5 44t-148 117.5t-86.5 164.5t-30 190zM248 1292q0 82 57 139.5t139 57.5t139.5 -57.5t57.5 -139.5t-57.5 -139t-139.5 -57t-139 57t-57 139z M485 514q0 -78 42.5 -134t117.5 -56t117.5 56t42.5 134t-42.5 134.5t-117.5 56.5t-117.5 -56.5t-42.5 -134.5zM776 1292q0 82 57.5 139.5t139.5 57.5t139 -57.5t57 -139.5t-57 -139t-139 -57t-139.5 57t-57.5 139z" />
<glyph unicode="&#xe5;" horiz-adv-x="1384" d="M61 496q0 100 30 191t86.5 165t148 118t204.5 44q196 0 283 -119v109h459v-1004h-459v115q-80 -135 -283 -135q-113 0 -204.5 44t-148 117.5t-86.5 164.5t-30 190zM401 1313q0 88 62.5 150.5t150.5 62.5t150.5 -62.5t62.5 -150.5t-62.5 -150.5t-150.5 -62.5t-150.5 62.5 t-62.5 150.5zM471 1313q0 -60 42.5 -103t102.5 -43t103 43t43 103t-43 102.5t-103 42.5t-102.5 -42.5t-42.5 -102.5zM485 514q0 -78 42.5 -134t117.5 -56t117.5 56t42.5 134t-42.5 134.5t-117.5 56.5t-117.5 -56.5t-42.5 -134.5z" />
<glyph unicode="&#xe6;" horiz-adv-x="2129" d="M61 496q0 100 30 191t86.5 165t148 118t204.5 44q196 0 283 -119v109h313v-99q55 48 147.5 80.5t192.5 32.5q119 0 217 -29t164.5 -79t112.5 -118.5t67 -145t21 -161.5q0 -7 -1 -21.5t-1 -21.5h-707q-2 -8 -2 -26q0 -27 5 -53.5t19 -58.5t45.5 -51.5t76.5 -19.5 q53 0 78.5 24.5t48.5 76.5l430 -51q-29 -64 -73.5 -117t-112.5 -99.5t-168 -73t-224 -26.5q-220 0 -336 123v-90h-313v115q-80 -135 -283 -135q-113 0 -204.5 44t-148 117.5t-86.5 164.5t-30 190zM485 514q0 -78 42.5 -134t117.5 -56t117.5 56t42.5 134t-42.5 134.5 t-117.5 56.5t-117.5 -56.5t-42.5 -134.5zM1346 635h266q0 46 -35 84.5t-100 38.5q-64 0 -97.5 -39.5t-33.5 -83.5z" />
<glyph unicode="&#xe7;" horiz-adv-x="835" d="M29 494q0 100 30.5 191.5t88.5 165.5t151.5 118.5t208.5 44.5q161 0 289 -58v-307q-69 60 -148 60q-81 0 -126.5 -61t-45.5 -144q0 -85 45.5 -147t126.5 -62q90 0 148 67v-315q-38 -19 -59.5 -28.5t-70 -22t-104.5 -16.5l-31 -72q82 -44 82 -117q0 -50 -35 -79t-92 -29 q-71 0 -127 38v115q26 -26 66 -26q19 0 30 11t11 27q0 4 -1 7.5t-2.5 7t-3.5 6.5t-5.5 6.5l-5.5 5.5l-6 6t-6 5.5t-7 5t-6 4.5l35 78q-104 9 -187.5 56t-135.5 118.5t-79.5 158.5t-27.5 181z" />
<glyph unicode="&#xe8;" horiz-adv-x="1212" d="M29 492q0 80 22.5 156t70 143t114.5 117.5t162.5 80t207.5 29.5q119 0 217 -29t164.5 -79t112.5 -118.5t67 -145t21 -161.5q0 -7 -1 -21.5t-1 -21.5h-707q0 -4 -1 -12.5t-1 -13.5q0 -27 5 -53.5t19 -58.5t45.5 -51.5t76.5 -19.5q53 0 78.5 24.5t48.5 76.5l430 -51 q-29 -64 -73.5 -117t-112.5 -99.5t-168 -73t-224 -26.5q-138 0 -249.5 45t-180.5 119.5t-106 167.5t-37 193zM410 1370l110 111l240 -240l-111 -111zM485 635h267q0 46 -35.5 84.5t-100.5 38.5q-64 0 -97.5 -39.5t-33.5 -83.5z" />
<glyph unicode="&#xe9;" horiz-adv-x="1212" d="M29 492q0 80 22.5 156t70 143t114.5 117.5t162.5 80t207.5 29.5q119 0 217 -29t164.5 -79t112.5 -118.5t67 -145t21 -161.5q0 -7 -1 -21.5t-1 -21.5h-707q0 -4 -1 -12.5t-1 -13.5q0 -27 5 -53.5t19 -58.5t45.5 -51.5t76.5 -19.5q53 0 78.5 24.5t48.5 76.5l430 -51 q-29 -64 -73.5 -117t-112.5 -99.5t-168 -73t-224 -26.5q-138 0 -249.5 45t-180.5 119.5t-106 167.5t-37 193zM485 635h267q0 46 -35.5 84.5t-100.5 38.5q-64 0 -97.5 -39.5t-33.5 -83.5zM494 1241l239 240l111 -111l-240 -240z" />
<glyph unicode="&#xea;" horiz-adv-x="1212" d="M29 492q0 80 22.5 156t70 143t114.5 117.5t162.5 80t207.5 29.5q119 0 217 -29t164.5 -79t112.5 -118.5t67 -145t21 -161.5q0 -7 -1 -21.5t-1 -21.5h-707q0 -4 -1 -12.5t-1 -13.5q0 -27 5 -53.5t19 -58.5t45.5 -51.5t76.5 -19.5q53 0 78.5 24.5t48.5 76.5l430 -51 q-29 -64 -73.5 -117t-112.5 -99.5t-168 -73t-224 -26.5q-138 0 -249.5 45t-180.5 119.5t-106 167.5t-37 193zM315 1204l260 256h74l256 -256l-100 -100l-191 192l-196 -196zM485 635h267q0 46 -35.5 84.5t-100.5 38.5q-64 0 -97.5 -39.5t-33.5 -83.5z" />
<glyph unicode="&#xeb;" horiz-adv-x="1212" d="M29 492q0 80 22.5 156t70 143t114.5 117.5t162.5 80t207.5 29.5q119 0 217 -29t164.5 -79t112.5 -118.5t67 -145t21 -161.5q0 -7 -1 -21.5t-1 -21.5h-707q0 -4 -1 -12.5t-1 -13.5q0 -27 5 -53.5t19 -58.5t45.5 -51.5t76.5 -19.5q53 0 78.5 24.5t48.5 76.5l430 -51 q-29 -64 -73.5 -117t-112.5 -99.5t-168 -73t-224 -26.5q-138 0 -249.5 45t-180.5 119.5t-106 167.5t-37 193zM162 1292q0 82 57 139.5t139 57.5t139.5 -57.5t57.5 -139.5t-57.5 -139t-139.5 -57t-139 57t-57 139zM485 635h267q0 46 -35.5 84.5t-100.5 38.5 q-64 0 -97.5 -39.5t-33.5 -83.5zM690 1292q0 82 57.5 139.5t139.5 57.5t139 -57.5t57 -139.5t-57 -139t-139 -57t-139.5 57t-57.5 139z" />
<glyph unicode="&#xec;" horiz-adv-x="702" d="M111 0v1001h471v-1001h-471zM139 1370l111 111l239 -240l-110 -111z" />
<glyph unicode="&#xed;" horiz-adv-x="686" d="M111 0v1001h471v-1001h-471zM236 1241l239 240l111 -111l-240 -240z" />
<glyph unicode="&#xee;" horiz-adv-x="686" d="M49 1204l260 256h76l254 -256l-100 -100l-191 192l-196 -196zM111 0v1001h471v-1001h-471z" />
<glyph unicode="&#xef;" horiz-adv-x="686" d="M-117 1292q0 82 57.5 139.5t139.5 57.5t139 -57.5t57 -139.5t-57 -139t-139 -57t-139.5 57t-57.5 139zM111 0v1001h471v-1001h-471zM412 1292q0 82 57 139.5t139 57.5t139.5 -57.5t57.5 -139.5t-57.5 -139t-139.5 -57t-139 57t-57 139z" />
<glyph unicode="&#xf0;" horiz-adv-x="1236" d="M31 498q0 100 37.5 192.5t108.5 167.5t185.5 119.5t255.5 44.5q50 0 93 -6q-47 81 -119 141l-184 -102l-170 106l186 109q-71 42 -127 66t-141 53l206 204q165 -52 232 -84q54 -26 102 -57l181 102l170 -108l-177 -103q167 -113 251.5 -314.5t84.5 -475.5 q0 -116 -37.5 -219.5t-109 -184.5t-185.5 -128.5t-256 -47.5q-141 0 -255.5 45t-185.5 119.5t-108.5 167.5t-37.5 193zM467 498q0 -78 40 -134.5t111 -56.5t111.5 56.5t40.5 134.5q0 77 -40.5 133.5t-111.5 56.5t-111 -56t-40 -134z" />
<glyph unicode="&#xf1;" horiz-adv-x="1361" d="M106 0v1004h472v-144q120 160 354 160q176 0 260 -93t84 -259v-668h-469v608q0 23 -4.5 43.5t-15.5 42.5t-35.5 35.5t-59.5 13.5q-58 0 -86 -45t-28 -90v-608h-472zM268 1278q112 125 256 125q76 0 156 -45q31 -16 44.5 -23t42.5 -14.5t60 -7.5q103 0 162 67l80 -90 q-98 -106 -240 -106q-90 0 -167 43q-6 3 -22 12t-22.5 12.5t-20 9.5t-23 8.5t-23 4.5t-27.5 2q-47 0 -85 -14.5t-56.5 -29.5t-42.5 -40z" />
<glyph unicode="&#xf2;" horiz-adv-x="1236" d="M31 498q0 100 37.5 192.5t108.5 167.5t185.5 119.5t255.5 44.5q114 0 211 -29.5t165.5 -79.5t117 -117t71.5 -142.5t23 -155.5q0 -100 -38 -193t-108.5 -167.5t-185.5 -119.5t-256 -45t-255.5 45t-185.5 119.5t-108.5 167.5t-37.5 193zM365 1370l110 111l240 -240 l-111 -111zM467 498q0 -78 40 -134.5t111 -56.5t111.5 56.5t40.5 134.5q0 77 -40.5 133.5t-111.5 56.5t-111 -56t-40 -134z" />
<glyph unicode="&#xf3;" horiz-adv-x="1236" d="M31 498q0 100 37.5 192.5t108.5 167.5t185.5 119.5t255.5 44.5q114 0 211 -29.5t165.5 -79.5t117 -117t71.5 -142.5t23 -155.5q0 -100 -38 -193t-108.5 -167.5t-185.5 -119.5t-256 -45t-255.5 45t-185.5 119.5t-108.5 167.5t-37.5 193zM467 498q0 -78 40 -134.5 t111 -56.5t111.5 56.5t40.5 134.5q0 77 -40.5 133.5t-111.5 56.5t-111 -56t-40 -134zM522 1241l240 240l110 -111l-239 -240z" />
<glyph unicode="&#xf4;" horiz-adv-x="1236" d="M31 498q0 100 37.5 192.5t108.5 167.5t185.5 119.5t255.5 44.5q114 0 211 -29.5t165.5 -79.5t117 -117t71.5 -142.5t23 -155.5q0 -100 -38 -193t-108.5 -167.5t-185.5 -119.5t-256 -45t-255.5 45t-185.5 119.5t-108.5 167.5t-37.5 193zM328 1204l260 256h74l256 -256 l-101 -100l-190 192l-197 -196zM467 498q0 -78 40 -134.5t111 -56.5t111.5 56.5t40.5 134.5q0 77 -40.5 133.5t-111.5 56.5t-111 -56t-40 -134z" />
<glyph unicode="&#xf5;" horiz-adv-x="1236" d="M31 498q0 100 37.5 192.5t108.5 167.5t185.5 119.5t255.5 44.5q114 0 211 -29.5t165.5 -79.5t117 -117t71.5 -142.5t23 -155.5q0 -100 -38 -193t-108.5 -167.5t-185.5 -119.5t-256 -45t-255.5 45t-185.5 119.5t-108.5 167.5t-37.5 193zM211 1278q112 125 256 125 q76 0 156 -45q31 -16 44.5 -23t42.5 -14.5t60 -7.5q103 0 162 67l80 -90q-98 -106 -240 -106q-91 0 -168 43q-5 3 -25.5 14t-27.5 14.5t-23.5 10t-30.5 8.5t-30 2q-47 0 -85 -14.5t-56.5 -29.5t-42.5 -40zM467 498q0 -78 40 -134.5t111 -56.5t111.5 56.5t40.5 134.5 q0 77 -40.5 133.5t-111.5 56.5t-111 -56t-40 -134z" />
<glyph unicode="&#xf6;" horiz-adv-x="1236" d="M31 498q0 100 37.5 192.5t108.5 167.5t185.5 119.5t255.5 44.5q114 0 211 -29.5t165.5 -79.5t117 -117t71.5 -142.5t23 -155.5q0 -100 -38 -193t-108.5 -167.5t-185.5 -119.5t-256 -45t-255.5 45t-185.5 119.5t-108.5 167.5t-37.5 193zM152 1292q0 82 57 139.5t139 57.5 t139.5 -57.5t57.5 -139.5t-57.5 -139t-139.5 -57t-139 57t-57 139zM467 498q0 -78 40 -134.5t111 -56.5t111.5 56.5t40.5 134.5q0 77 -40.5 133.5t-111.5 56.5t-111 -56t-40 -134zM680 1292q0 82 57.5 139.5t139.5 57.5t139 -57.5t57 -139.5t-57 -139t-139 -57t-139.5 57 t-57.5 139z" />
<glyph unicode="&#xf7;" horiz-adv-x="909" d="M86 516v254h752v-254h-752zM236 201q0 92 64.5 156.5t156.5 64.5t156.5 -64.5t64.5 -156.5t-64.5 -156.5t-156.5 -64.5t-156.5 64.5t-64.5 156.5zM236 1090q0 92 64.5 156.5t156.5 64.5t156.5 -64.5t64.5 -156.5t-64.5 -157t-156.5 -65t-156.5 65t-64.5 157z" />
<glyph unicode="&#xf8;" horiz-adv-x="1236" d="M31 498q0 100 37.5 192.5t108.5 167.5t185.5 119.5t255.5 44.5q133 0 242 -39l68 104h127l-97 -151q120 -70 184 -187.5t64 -250.5q0 -100 -38 -193t-108.5 -167.5t-185.5 -119.5t-256 -45q-135 0 -253 43l-99 -153h-127l129 203q-115 73 -176 188t-61 244zM467 498 q0 -78 40 -134.5t111 -56.5t111.5 56.5t40.5 134.5q0 77 -40.5 133.5t-111.5 56.5t-111 -56t-40 -134z" />
<glyph unicode="&#xf9;" horiz-adv-x="1296" d="M88 436v568h459v-564q0 -52 28 -85t76 -33q50 0 77.5 32.5t27.5 85.5v564h461v-568q0 -213 -145 -336t-421 -123q-275 0 -419 123t-144 336zM422 1370l110 111l240 -240l-110 -111z" />
<glyph unicode="&#xfa;" horiz-adv-x="1296" d="M88 436v568h459v-564q0 -52 28 -85t76 -33q50 0 77.5 32.5t27.5 85.5v564h461v-568q0 -213 -145 -336t-421 -123q-275 0 -419 123t-144 336zM555 1241l240 240l110 -111l-239 -240z" />
<glyph unicode="&#xfb;" horiz-adv-x="1296" d="M88 436v568h459v-564q0 -52 28 -85t76 -33q50 0 77.5 32.5t27.5 85.5v564h461v-568q0 -213 -145 -336t-421 -123q-275 0 -419 123t-144 336zM356 1204l260 256h76l254 -256l-100 -100l-191 192l-196 -196z" />
<glyph unicode="&#xfc;" horiz-adv-x="1296" d="M88 436v568h459v-564q0 -52 28 -85t76 -33q50 0 77.5 32.5t27.5 85.5v564h461v-568q0 -213 -145 -336t-421 -123q-275 0 -419 123t-144 336zM190 1292q0 82 57.5 139.5t139.5 57.5t139.5 -57.5t57.5 -139.5t-57.5 -139t-139.5 -57t-139.5 57t-57.5 139zM719 1292 q0 82 57 139.5t139 57.5t139.5 -57.5t57.5 -139.5t-57.5 -139t-139.5 -57t-139 57t-57 139z" />
<glyph unicode="&#xfd;" horiz-adv-x="1259" d="M25 1004h481l123 -345l147 345h473l-633 -1422h-460l245 561zM510 1241l240 240l110 -111l-239 -240z" />
<glyph unicode="&#xfe;" horiz-adv-x="1378" d="M121 -416v1929h469v-630q50 62 116.5 98.5t165.5 36.5q89 0 164.5 -29t128.5 -79t90.5 -116.5t55.5 -141.5t18 -154q0 -100 -29 -192.5t-84.5 -167t-144.5 -119t-199 -44.5q-175 0 -282 119v-510h-469zM580 492q0 -74 39.5 -127.5t111.5 -53.5t112 54t40 127t-40 126.5 t-112 53.5t-111.5 -53.5t-39.5 -126.5z" />
<glyph unicode="&#xff;" horiz-adv-x="1261" d="M25 1004h481l123 -345l147 345h473l-633 -1422h-460l245 561zM190 1292q0 82 57.5 139.5t139.5 57.5t139.5 -57.5t57.5 -139.5t-57.5 -139t-139.5 -57t-139.5 57t-57.5 139zM719 1292q0 82 57 139.5t139 57.5t139.5 -57.5t57.5 -139.5t-57.5 -139t-139.5 -57t-139 57 t-57 139z" />
<glyph unicode="&#x152;" horiz-adv-x="2439" d="M45 729q0 114 30.5 222t94 204t153.5 168t218 114t278 42q211 0 371 -79t260 -216v278h942v-364h-473v-189h448v-366h-448v-176h473v-367h-942v274q-99 -136 -258.5 -215t-372.5 -79q-187 0 -337.5 64t-244 170.5t-143 238.5t-49.5 276zM567 729q0 -81 27 -150.5t86 -116 t139 -46.5t139 46.5t86 116t27 150.5t-27 150.5t-86 116t-139 46.5t-139 -46.5t-86 -116t-27 -150.5z" />
<glyph unicode="&#x153;" horiz-adv-x="1964" d="M31 498q0 100 37.5 192.5t108.5 167.5t185.5 119.5t255.5 44.5q199 0 345 -86q138 82 327 82q119 0 217 -29t164.5 -79t112.5 -118.5t67 -145t21 -161.5q0 -7 -1 -21.5t-1 -21.5h-707q-2 -8 -2 -26q0 -27 5 -53.5t19 -58.5t45.5 -51.5t76.5 -19.5q53 0 78.5 24.5 t48.5 76.5l430 -51q-29 -64 -73.5 -117t-112.5 -99.5t-168 -73t-224 -26.5q-195 0 -336 88q-141 -82 -332 -82q-141 0 -255.5 45t-185.5 119.5t-108.5 167.5t-37.5 193zM467 498q0 -78 40 -134.5t111 -56.5t111.5 56.5t40.5 134.5q0 77 -40.5 133.5t-111.5 56.5t-111 -56 t-40 -134zM1169 635h267q0 46 -35.5 84.5t-100.5 38.5q-64 0 -97.5 -39.5t-33.5 -83.5z" />
<glyph unicode="&#x178;" horiz-adv-x="1411" d="M31 1462h481l197 -364l188 364h498l-455 -792v-670h-481v670zM324 1686q0 65 45.5 111t111.5 46q65 0 111.5 -46.5t46.5 -110.5t-46.5 -111t-111.5 -47q-66 0 -111.5 46.5t-45.5 111.5zM788 1686q0 64 46.5 110.5t111.5 46.5q66 0 112 -46t46 -111t-46 -111.5t-112 -46.5 q-64 0 -111 47t-47 111z" />
<glyph unicode="&#x2c6;" horiz-adv-x="804" d="M111 1204l260 256h73l256 -256l-100 -100l-190 192l-197 -196z" />
<glyph unicode="&#x2dc;" horiz-adv-x="970" d="M88 1278q112 125 256 125q76 0 156 -45q31 -16 44.5 -23t42.5 -14.5t60 -7.5q103 0 162 67l80 -90q-98 -106 -240 -106q-91 0 -168 43q-5 3 -25.5 14t-27.5 14.5t-23.5 10t-30.5 8.5t-30 2q-47 0 -85 -14.5t-56.5 -29.5t-42.5 -40z" />
<glyph unicode="&#x2000;" horiz-adv-x="955" />
<glyph unicode="&#x2001;" horiz-adv-x="1911" />
<glyph unicode="&#x2002;" horiz-adv-x="955" />
<glyph unicode="&#x2003;" horiz-adv-x="1911" />
<glyph unicode="&#x2004;" horiz-adv-x="637" />
<glyph unicode="&#x2005;" horiz-adv-x="477" />
<glyph unicode="&#x2006;" horiz-adv-x="318" />
<glyph unicode="&#x2007;" horiz-adv-x="318" />
<glyph unicode="&#x2008;" horiz-adv-x="238" />
<glyph unicode="&#x2009;" horiz-adv-x="382" />
<glyph unicode="&#x200a;" horiz-adv-x="106" />
<glyph unicode="&#x2010;" horiz-adv-x="1222" d="M147 375v313h936v-313h-936z" />
<glyph unicode="&#x2011;" horiz-adv-x="1222" d="M147 375v313h936v-313h-936z" />
<glyph unicode="&#x2012;" horiz-adv-x="1222" d="M147 375v313h936v-313h-936z" />
<glyph unicode="&#x2013;" horiz-adv-x="1515" d="M147 375v313h1207v-313h-1207z" />
<glyph unicode="&#x2014;" horiz-adv-x="1974" d="M147 375v313h1698v-313h-1698z" />
<glyph unicode="&#x2018;" horiz-adv-x="458" d="M98 1208v293h262v-213h-90v-78q0 -80 84 -114l-90 -123q-1 1 -16 9.5t-20.5 12t-21 13.5t-22.5 17t-21 20t-21 24t-17 27.5t-15 32.5t-8.5 36.5t-3.5 42.5z" />
<glyph unicode="&#x2019;" horiz-adv-x="491" d="M121 1288v213h262v-293q0 -22 -3.5 -42.5t-8.5 -36.5t-15 -32.5t-17 -27.5t-21 -24t-21 -20t-22.5 -17t-21 -13.5t-20.5 -12t-16 -9.5l-90 123q84 34 84 114v78h-90z" />
<glyph unicode="&#x201a;" horiz-adv-x="491" d="M121 129v213h262v-293q0 -22 -3.5 -42.5t-8.5 -36.5t-15 -32.5t-17 -27.5t-21 -24t-21 -20t-22.5 -17t-21 -13.5t-20.5 -12t-16 -9.5l-90 123q84 34 84 114v78h-90z" />
<glyph unicode="&#x201c;" horiz-adv-x="849" d="M100 1208v293h262v-213h-90v-82q0 -31 14 -54t29 -33t41 -23l-90 -123q-1 1 -16 9.5t-20.5 12t-21 13.5t-22.5 17t-21 20t-21 24t-17 27.5t-15 32.5t-8.5 36.5t-3.5 42.5zM508 1208v293h262v-213h-90v-78q0 -80 84 -114l-90 -123q-1 1 -16 9.5t-20.5 12t-21 13.5 t-22.5 17t-21 20t-21 24t-17 27.5t-15 32.5t-8.5 36.5t-3.5 42.5z" />
<glyph unicode="&#x201d;" horiz-adv-x="868" d="M121 1288v213h262v-293q0 -22 -3.5 -42.5t-8.5 -36.5t-15 -32.5t-17 -27.5t-21 -24t-21 -20t-22.5 -17t-21 -13.5t-20.5 -12t-16 -9.5l-90 123q84 34 84 114v78h-90zM528 1288v213h263v-293q0 -22 -3.5 -42.5t-8.5 -36.5t-15 -32.5t-17 -27.5t-21 -24t-21 -20t-22.5 -17 t-21 -13.5t-20.5 -12t-16 -9.5l-90 123q26 13 41 23t28.5 33t13.5 54v82h-90z" />
<glyph unicode="&#x201e;" horiz-adv-x="868" d="M121 129v213h262v-293q0 -22 -3.5 -42.5t-8.5 -36.5t-15 -32.5t-17 -27.5t-21 -24t-21 -20t-22.5 -17t-21 -13.5t-20.5 -12t-16 -9.5l-90 123q84 34 84 114v78h-90zM528 129v213h263v-293q0 -22 -3.5 -42.5t-8.5 -36.5t-15 -32.5t-17 -27.5t-21 -24t-21 -20t-22.5 -17 t-21 -13.5t-20.5 -12t-16 -9.5l-90 123q26 13 41 23t28.5 33t13.5 54v82h-90z" />
<glyph unicode="&#x2022;" horiz-adv-x="1024" d="M137 545q0 157 110 267t267 110t267 -110t110 -267t-110 -267t-267 -110t-267 110t-110 267z" />
<glyph unicode="&#x2026;" horiz-adv-x="2334" d="M236 201q0 92 64.5 156.5t156.5 64.5t156.5 -64.5t64.5 -156.5t-64.5 -156.5t-156.5 -64.5t-156.5 64.5t-64.5 156.5zM936 201q0 92 64.5 156.5t156.5 64.5t156.5 -64.5t64.5 -156.5t-64.5 -156.5t-156.5 -64.5t-156.5 64.5t-64.5 156.5zM1632 201q0 92 64.5 156.5 t156.5 64.5t157 -64.5t65 -156.5t-65 -156.5t-157 -64.5t-156.5 64.5t-64.5 156.5z" />
<glyph unicode="&#x202f;" horiz-adv-x="382" />
<glyph unicode="&#x2039;" horiz-adv-x="720" d="M45 543v168l508 370l139 -202l-362 -252l362 -256l-139 -197z" />
<glyph unicode="&#x203a;" horiz-adv-x="720" d="M45 371l363 256l-363 252l139 202l508 -370v-168l-508 -369z" />
<glyph unicode="&#x205f;" horiz-adv-x="477" />
<glyph unicode="&#x2122;" horiz-adv-x="858" d="M72 1425v52h303v-52h-127v-340h-51v340h-125zM362 1087l87 396l126 -289l127 289l84 -396h-55l-41 246l-115 -268l-112 274l-51 -252h-50z" />
<glyph unicode="&#x25fc;" horiz-adv-x="1003" d="M0 0v1004h1004v-1004h-1004z" />
</font>
</defs>
</svg>
